<?xml version="1.0" encoding="utf-8"?>
<!-- Generator: Adobe Illustrator 18.1.1, SVG Export Plug-In . SVG Version: 6.00 Build 0)  -->
<!DOCTYPE svg PUBLIC "-//W3C//DTD SVG 1.1//EN" "http://www.w3.org/Graphics/SVG/1.1/DTD/svg11.dtd">
<svg version="1.1" id="Ebene_1" xmlns="http://www.w3.org/2000/svg" xmlns:xlink="http://www.w3.org/1999/xlink" x="0px" y="0px"
	 viewBox="8 56.4 137 39.7" enable-background="new 8 56.4 137 39.7" xml:space="preserve">
<g>
	<path fill="#E27D26" d="M15.5,71.9c1.4,0,2.5,0.2,3.3,0.4V67c0-0.6,0.2-0.8,0.8-0.8h1.5c0.6,0,0.8,0.2,0.8,0.8v17.7
		c0,0.9-0.2,1.2-1.1,1.5c-1.1,0.5-2.6,0.9-5.2,0.9c-4.1,0-6-2.1-6-5.6v-3.8C9.6,74,11.6,71.9,15.5,71.9z M16.1,74.9
		c-2.2,0-3.2,1-3.2,2.9v3.6c0,1.8,1.1,2.7,3.1,2.7c1,0,1.8-0.1,2.5-0.3c0.2-0.1,0.2-0.2,0.2-0.3v-8.4C18.1,75.1,17.2,74.9,16.1,74.9
		z"/>
	<path fill="#E27D26" d="M31,71.9c4.4,0,6.4,2.5,6.4,5.7v1.7c0,0.7-0.3,1.2-1.3,1.2h-8.4v1c0,1.8,1.1,2.7,3.2,2.7
		c1.6,0,2.7-0.5,3.3-1.5c0.5-0.6,0.7-0.7,1.5-0.4l1,0.5c0.6,0.3,0.7,0.8,0.4,1.4c-1,1.6-2.8,2.6-6,2.6c-4.6,0-6.4-2.5-6.4-5.9v-3.3
		C24.7,74,26.8,71.9,31,71.9z M31,74.7c-2.1,0-3.2,1-3.2,2.8v0.6h6.4v-0.6C34.2,75.7,33.2,74.7,31,74.7z"/>
	<path fill="#E27D26" d="M46.5,71.9c3.9,0,5.7,2.1,5.7,5.6v8.4c0,0.6-0.2,0.8-0.8,0.8h-1.5c-0.6,0-0.8-0.2-0.8-0.8v-8.3
		c0-1.8-1-2.7-3-2.7c-1.1,0-1.9,0.2-2.6,0.4c-0.2,0.1-0.2,0.2-0.2,0.3v10.4c0,0.6-0.2,0.8-0.8,0.8h-1.5c-0.6,0-0.8-0.2-0.8-0.8V74.5
		c0-0.9,0.2-1.2,1.1-1.5C42.1,72.4,43.9,71.9,46.5,71.9z"/>
	<path fill="#E27D26" d="M67.1,86.7h-1.5c-1,0-1.2-0.1-1.5-0.8l-1.7-3.7c-0.5-0.8-1-1.3-2.2-1.3h-1.6v4.9c0,0.6-0.2,0.9-0.9,0.9
		h-1.5c-0.7,0-0.9-0.2-0.9-0.9V67.1c0-0.6,0.2-0.9,0.9-0.9h1.5c0.7,0,0.9,0.2,0.9,0.9V78h1.3h0.2l3.7-4.9c0.5-0.6,0.7-0.6,1.6-0.6
		h1.4c0.8,0,1.1,0.4,0.5,1l-4.2,5.2c0.8,0.5,1.5,1.2,2,2.3l2.5,4.8C68,86.4,67.9,86.7,67.1,86.7z"/>
</g>
<g>
	<path fill="#52524F" d="M79.4,67.1v1.2c0,0.6-0.2,0.9-0.9,0.9c-2.4,0-3.1,0.8-3.1,2.9v0.3h3.2c0.6,0,0.8,0.2,0.8,0.8v1.3
		c0,0.6-0.2,0.8-0.8,0.8h-3.2v10.6c0,0.6-0.2,0.8-0.8,0.8h-1.5c-0.6,0-0.9-0.2-0.9-0.8V75.3h-1.6c-0.6,0-0.8-0.2-0.8-0.8v-1.3
		c0-0.6,0.2-0.8,0.8-0.8h1.6v-0.3c0-3.8,1.9-5.8,6.1-5.9h0.3C79.1,66.2,79.4,66.4,79.4,67.1z"/>
	<path fill="#52524F" d="M86.6,71.9c4.6,0,5.9,2.5,5.9,5.7v7.2c0,1-0.2,1.3-1,1.5c-1,0.5-2.7,0.7-5,0.7c-4.9,0-6.2-1.6-6.2-4.5
		c0-3.4,1.8-4.5,6.3-4.5c1.1,0,2.2,0.1,2.6,0.2v-0.8c0-1.7-0.7-2.7-2.7-2.7c-1.4,0-2.4,0.5-2.9,1.4c-0.4,0.5-0.5,0.6-1.2,0.5
		l-1.1-0.5c-0.6-0.3-0.8-0.6-0.5-1.3C81.8,73,83.7,71.9,86.6,71.9z M86.3,80.8c-2.1,0-2.6,0.6-2.6,1.8c0,1.2,0.5,1.8,2.6,1.8
		c1.5,0,2.3-0.1,2.7-0.2c0.2-0.1,0.3-0.2,0.3-0.4V81C88.7,81,87.4,80.8,86.3,80.8z"/>
	<path fill="#52524F" d="M98.7,67v5.4c0.8-0.2,2-0.5,3.4-0.5c4,0,5.7,2.1,5.7,5.6v3.7c0,3.8-2,5.9-6.3,5.9c-2.3,0-4-0.5-5-0.9
		c-0.9-0.5-1-0.6-1-1.5V67c0-0.6,0.2-0.8,0.8-0.8h1.5C98.5,66.2,98.7,66.4,98.7,67z M101.6,74.9c-1.2,0-2.2,0.3-2.8,0.5v8.2
		c0,0.2,0,0.2,0.2,0.3c0.6,0.2,1.5,0.4,2.4,0.4c2.2,0,3.3-1,3.3-3v-3.6C104.6,75.9,103.5,74.9,101.6,74.9z"/>
	<path fill="#52524F" d="M117.6,71.9c0.6,0,0.8,0.2,0.8,0.8V74c0,0.6-0.2,0.8-0.8,0.8h-1c-1.1,0-1.9,0.1-2.6,0.4
		c-0.3,0.1-0.3,0.2-0.3,0.4v10.3c0,0.6-0.2,0.8-0.8,0.8h-1.5c-0.6,0-0.8-0.2-0.8-0.8V74.3c0-0.9,0.2-1.2,1.1-1.5
		c1-0.4,2.7-0.8,5.2-0.8C116.8,71.9,117.6,71.9,117.6,71.9z"/>
	<path fill="#52524F" d="M123.7,68.7v0.3c0,1.3-0.5,1.7-1.7,1.7h-0.2c-1.3,0-1.7-0.5-1.7-1.7v-0.3c0-1.3,0.5-1.6,1.7-1.6h0.2
		C123.3,66.9,123.7,67.4,123.7,68.7z M123.5,73.2v12.7c0,0.6-0.2,0.8-0.8,0.8h-1.5c-0.6,0-0.8-0.2-0.8-0.8V73.2
		c0-0.6,0.2-0.8,0.8-0.8h1.5C123.3,72.4,123.5,72.6,123.5,73.2z"/>
	<path fill="#52524F" d="M138.4,86.7H137c-1,0-1.2-0.1-1.5-0.8l-1.7-3.7c-0.5-1-1.1-1.4-2.2-1.4H130v4.9c0,0.6-0.2,0.9-0.9,0.9h-1.5
		c-0.7,0-0.9-0.2-0.9-0.9V67.1c0-0.6,0.2-0.9,0.9-0.9h1.5c0.7,0,0.9,0.2,0.9,0.9V78h1.3h0.2l3.7-4.9c0.5-0.6,0.7-0.6,1.6-0.6h1.4
		c0.8,0,1.1,0.4,0.5,1l-4.2,5.2c0.8,0.5,1.5,1.2,2,2.3l2.5,4.8C139.4,86.4,139.3,86.7,138.4,86.7z"/>
</g>
<g>
	<path fill="#52524F" d="M144.1,85.2v0.2c0,1.1-0.3,1.4-1.4,1.4h-0.2c-1.1,0-1.4-0.3-1.4-1.4v-0.2c0-1.1,0.4-1.4,1.4-1.4h0.2
		C143.7,83.7,144.1,84,144.1,85.2z"/>
</g>
</svg>
